{
  "version": "1.1.6",
  "modules": [
    {
      "id": 1,
      "plugin": "Core",
      "version": "1.1.6",
      "model": "AudioInterface",
      "params": [],
      "leftModuleId": 2,
      "rightModuleId": 13,
      "data": {
        "audio": {
          "driver": 5,
          "deviceName": "Apple Inc.: Built-in Output",
          "offset": 0,
          "maxChannels": 8,
          "sampleRate": 44100,
          "blockSize": 256
        }
      },
      "pos": [
        89,
        0
      ]
    },
    {
      "id": 2,
      "plugin": "Fundamental",
      "version": "1.4.0",
      "model": "VCMixer",
      "params": [
        {
          "id": 0,
          "value": 1.0
        },
        {
          "id": 1,
          "value": 1.07636714
        },
        {
          "id": 2,
          "value": 1.0
        },
        {
          "id": 3,
          "value": 1.0
        },
        {
          "id": 4,
          "value": 1.0
        }
      ],
      "leftModuleId": 7,
      "rightModuleId": 1,
      "pos": [
        79,
        0
      ]
    },
    {
      "id": 3,
      "plugin": "Fundamental",
      "version": "1.4.0",
      "model": "VCO",
      "params": [
        {
          "id": 0,
          "value": 1.0
        },
        {
          "id": 1,
          "value": 0.0
        },
        {
          "id": 2,
          "value": 9.28800011
        },
        {
          "id": 3,
          "value": -0.22800003
        },
        {
          "id": 4,
          "value": 0.58950007
        },
        {
          "id": 5,
          "value": 0.719519913
        },
        {
          "id": 6,
          "value": 0.207000032
        }
      ],
      "leftModuleId": 12,
      "rightModuleId": 4,
      "pos": [
        40,
        0
      ]
    },
    {
      "id": 4,
      "plugin": "Fundamental",
      "version": "1.4.0",
      "model": "VCF",
      "params": [
        {
          "id": 0,
          "value": 0.817500651
        },
        {
          "id": 1,
          "value": 0.507499933
        },
        {
          "id": 2,
          "value": 0.505500078
        },
        {
          "id": 3,
          "value": -0.331999838
        },
        {
          "id": 4,
          "value": 0.0105000008
        }
      ],
      "leftModuleId": 3,
      "rightModuleId": 6,
      "pos": [
        50,
        0
      ]
    },
    {
      "id": 5,
      "plugin": "Core",
      "version": "1.1.6",
      "model": "MIDIToCVInterface",
      "params": [],
      "data": {
        "channels": 1,
        "polyMode": 0,
        "clockDivision": 24,
        "lastPitch": 8192,
        "lastMod": 127,
        "midi": {
          "driver": 1,
          "deviceName": "AKM320",
          "channel": -1
        }
      },
      "pos": [
        7,
        1
      ]
    },
    {
      "id": 6,
      "plugin": "Fundamental",
      "version": "1.4.0",
      "model": "ADSR",
      "params": [
        {
          "id": 0,
          "value": 0.500500441
        },
        {
          "id": 1,
          "value": 0.0
        },
        {
          "id": 2,
          "value": 0.99849999
        },
        {
          "id": 3,
          "value": 0.757999778
        }
      ],
      "leftModuleId": 4,
      "rightModuleId": 7,
      "pos": [
        58,
        0
      ]
    },
    {
      "id": 7,
      "plugin": "Fundamental",
      "version": "1.4.0",
      "model": "Scope",
      "params": [
        {
          "id": 0,
          "value": 0.0
        },
        {
          "id": 1,
          "value": -5.09999657
        },
        {
          "id": 2,
          "value": -1.0
        },
        {
          "id": 3,
          "value": 0.0
        },
        {
          "id": 4,
          "value": 10.880003
        },
        {
          "id": 5,
          "value": 0.0
        },
        {
          "id": 6,
          "value": 2.82000041
        },
        {
          "id": 7,
          "value": 0.0
        }
      ],
      "leftModuleId": 6,
      "rightModuleId": 2,
      "data": {
        "lissajous": 0,
        "external": 0
      },
      "pos": [
        66,
        0
      ]
    },
    {
      "id": 10,
      "plugin": "Fundamental",
      "version": "1.4.0",
      "model": "8vert",
      "params": [
        {
          "id": 0,
          "value": -0.657999814
        },
        {
          "id": 1,
          "value": 0.0
        },
        {
          "id": 2,
          "value": 0.0
        },
        {
          "id": 3,
          "value": 0.0
        },
        {
          "id": 4,
          "value": 0.0
        },
        {
          "id": 5,
          "value": 0.0
        },
        {
          "id": 6,
          "value": 0.0
        },
        {
          "id": 7,
          "value": 0.0
        }
      ],
      "pos": [
        107,
        0
      ]
    },
    {
      "id": 11,
      "plugin": "Fundamental",
      "version": "1.4.0",
      "model": "LFO",
      "params": [
        {
          "id": 0,
          "value": 1.0
        },
        {
          "id": 1,
          "value": 1.0
        },
        {
          "id": 2,
          "value": -4.10299969
        },
        {
          "id": 3,
          "value": 0.0
        },
        {
          "id": 4,
          "value": 0.0
        },
        {
          "id": 5,
          "value": 0.5
        },
        {
          "id": 6,
          "value": 0.0
        }
      ],
      "pos": [
        0,
        0
      ]
    },
    {
      "id": 12,
      "plugin": "Fundamental",
      "version": "1.4.0",
      "model": "SEQ3",
      "params": [
        {
          "id": 0,
          "value": 2.1680007
        },
        {
          "id": 1,
          "value": 0.0
        },
        {
          "id": 2,
          "value": 0.0
        },
        {
          "id": 3,
          "value": 8.0
        },
        {
          "id": 4,
          "value": 3.28500009
        },
        {
          "id": 5,
          "value": 0.0
        },
        {
          "id": 6,
          "value": 2.40000057
        },
        {
          "id": 7,
          "value": 0.4799999
        },
        {
          "id": 8,
          "value": 0.0
        },
        {
          "id": 9,
          "value": 4.77000046
        },
        {
          "id": 10,
          "value": 10.0
        },
        {
          "id": 11,
          "value": 0.0900000036
        },
        {
          "id": 12,
          "value": 4.13999987
        },
        {
          "id": 13,
          "value": 3.09000039
        },
        {
          "id": 14,
          "value": 3.5849998
        },
        {
          "id": 15,
          "value": 5.7300005
        },
        {
          "id": 16,
          "value": 6.96000242
        },
        {
          "id": 17,
          "value": 4.31999874
        },
        {
          "id": 18,
          "value": 6.0600009
        },
        {
          "id": 19,
          "value": 1.20000052
        },
        {
          "id": 20,
          "value": 10.0
        },
        {
          "id": 21,
          "value": 0.0150000006
        },
        {
          "id": 22,
          "value": 3.32999992
        },
        {
          "id": 23,
          "value": 2.35499859
        },
        {
          "id": 24,
          "value": 4.45499992
        },
        {
          "id": 25,
          "value": 0.0
        },
        {
          "id": 26,
          "value": 5.02500057
        },
        {
          "id": 27,
          "value": 0.0
        },
        {
          "id": 28,
          "value": 0.0
        },
        {
          "id": 29,
          "value": 0.0
        },
        {
          "id": 30,
          "value": 0.0
        },
        {
          "id": 31,
          "value": 0.0
        },
        {
          "id": 32,
          "value": 0.0
        },
        {
          "id": 33,
          "value": 0.0
        },
        {
          "id": 34,
          "value": 0.0
        },
        {
          "id": 35,
          "value": 0.0
        }
      ],
      "rightModuleId": 3,
      "data": {
        "running": false,
        "gates": [
          1,
          1,
          1,
          1,
          1,
          1,
          1,
          1
        ]
      },
      "pos": [
        18,
        0
      ]
    },
    {
      "id": 13,
      "plugin": "VCV-Recorder",
      "version": "1.1.0",
      "model": "Recorder",
      "params": [
        {
          "id": 0,
          "value": 1.48164439
        },
        {
          "id": 1,
          "value": 0.0
        }
      ],
      "leftModuleId": 1,
      "data": {
        "format": "wav",
        "path": "/Users/celinaquinones/Documents/Rack/beep boop beep.wav",
        "incrementPath": true,
        "sampleRate": 44100,
        "depth": 16,
        "bitRate": 256000,
        "videoBitRate": 2048000
      },
      "pos": [
        99,
        0
      ]
    }
  ],
  "cables": [
    {
      "id": 24,
      "outputModuleId": 2,
      "outputId": 0,
      "inputModuleId": 1,
      "inputId": 0,
      "color": "#0986ad"
    },
    {
      "id": 25,
      "outputModuleId": 2,
      "outputId": 0,
      "inputModuleId": 1,
      "inputId": 1,
      "color": "#c9b70e"
    },
    {
      "id": 26,
      "outputModuleId": 4,
      "outputId": 0,
      "inputModuleId": 2,
      "inputId": 1,
      "color": "#0c8e15"
    },
    {
      "id": 27,
      "outputModuleId": 2,
      "outputId": 1,
      "inputModuleId": 7,
      "inputId": 0,
      "color": "#c91847"
    },
    {
      "id": 28,
      "outputModuleId": 6,
      "outputId": 0,
      "inputModuleId": 2,
      "inputId": 5,
      "color": "#0986ad"
    },
    {
      "id": 29,
      "outputModuleId": 6,
      "outputId": 0,
      "inputModuleId": 4,
      "inputId": 0,
      "color": "#c9b70e"
    },
    {
      "id": 31,
      "outputModuleId": 12,
      "outputId": 1,
      "inputModuleId": 3,
      "inputId": 0,
      "color": "#c91847"
    },
    {
      "id": 32,
      "outputModuleId": 3,
      "outputId": 2,
      "inputModuleId": 4,
      "inputId": 3,
      "color": "#0986ad"
    },
    {
      "id": 38,
      "outputModuleId": 12,
      "outputId": 4,
      "inputModuleId": 3,
      "inputId": 2,
      "color": "#c91847"
    },
    {
      "id": 40,
      "outputModuleId": 3,
      "outputId": 1,
      "inputModuleId": 6,
      "inputId": 5,
      "color": "#0c8e15"
    },
    {
      "id": 43,
      "outputModuleId": 3,
      "outputId": 0,
      "inputModuleId": 6,
      "inputId": 1,
      "color": "#0986ad"
    },
    {
      "id": 69,
      "outputModuleId": 2,
      "outputId": 0,
      "inputModuleId": 13,
      "inputId": 3,
      "color": "#c9b70e"
    },
    {
      "id": 71,
      "outputModuleId": 2,
      "outputId": 0,
      "inputModuleId": 13,
      "inputId": 2,
      "color": "#c9b70e"
    },
    {
      "id": 91,
      "outputModuleId": 12,
      "outputId": 0,
      "inputModuleId": 6,
      "inputId": 4,
      "color": "#c9b70e"
    },
    {
      "id": 100,
      "outputModuleId": 12,
      "outputId": 8,
      "inputModuleId": 12,
      "inputId": 2,
      "color": "#0c8e15"
    }
  ]
}